<?xml version="1.0" encoding="utf-8"?>
<!-- Generator: Adobe Illustrator 21.0.0, SVG Export Plug-In . SVG Version: 6.00 Build 0)  -->
<svg version="1.1" id="Layer_1" xmlns="http://www.w3.org/2000/svg" xmlns:xlink="http://www.w3.org/1999/xlink" x="0px" y="0px"
	 viewBox="0 0 1000 1000" style="enable-background:new 0 0 1000 1000;" xml:space="preserve">
<style type="text/css">
	.st0{fill:#FFFFFF;}
</style>
<g>
	<path class="st0" d="M633.8,354.1c-13.2,0-19.8,7.4-19.8,22.1c0,9,6,18.2,18.2,27.7c12.6-13.2,19-22.6,19-28.4
		C651.2,362.3,645.4,355.2,633.8,354.1z"/>
	<path class="st0" d="M279.5,322.4C259.8,348,248,386,244.4,436.6c-0.5,4.7-0.8,9.2-0.8,13.4c0,25.8,6.2,46.4,18.6,61.6
		c12.4,15.3,28.3,22.9,47.8,22.9c33.2,0,58.2-23.4,75-70.3l19-170.6c-15.3-6.3-30-9.5-44.2-9.5C326,284.1,299.3,296.9,279.5,322.4z"
		/>
	<path class="st0" d="M500,0C223.9,0,0,223.9,0,500s223.9,500,500,500s500-223.9,500-500S776.1,0,500,0z M817.1,701.7
		c-32.7,25.3-73.7,37.9-123.2,37.9c-32.1,0-58.9-8-80.2-24.1c-21.3-16.1-32-35.9-32-59.6c0-23.7,7.9-42.5,23.7-56.5
		c15.8-13.9,35.6-22.5,59.3-25.7c-11.1,15.8-16.6,30.9-16.6,45.4c0,14.5,5,26.2,15,35.2c10,9,22.6,13.4,37.9,13.4
		c15.3,0,27.9-5.7,37.9-17c10-11.3,15-24.4,15-39.1c0-24.2-11.3-45.8-34-64.8c-13.7-11.1-28.4-21.5-44.2-31.2
		c-15.8-9.7-24.2-14.9-25.3-15.4c-2.1-1.6-4.2-2.9-6.3-4c-9.5,11.1-23.2,26.2-41.1,45.4c-17.9,19.2-32.1,34.6-42.7,46.2
		c-29.5,32.1-46.1,59-49.8,80.6c-1.1,4.2-1.6,12.2-1.6,24.1c0,11.9,3.6,24.1,10.7,36.7c7.1,12.6,15.7,22.1,25.7,28.4
		c10,6.3,19.9,11.5,29.6,15.4c9.7,3.9,18.2,6.7,25.3,8.3c7.1,1.6,10.7,2.6,10.7,3.2c0,3.7-5.8,7.9-17.4,12.6
		c-21.6,7.9-44.1,11.9-67.5,11.9c-23.4,0-46.2-8.4-68.3-25.3c-30-23.2-45-54-45-92.4c0-23.7,6.1-47.1,18.2-70.3
		c3.4-6.5,7.6-13.4,12.4-20.6c-24.7-7.6-42.2-22.4-52.7-44.7c-27.4,34.2-62.5,51.4-105.5,51.4c-42.9,0-79-14.5-108.2-43.5
		c-29.2-29-43.8-67.2-43.8-114.6c0-69,20.3-124,60.8-165.1c40.5-41.1,91.9-61.6,154.1-61.6c1.6,0,3.2,0,4.7,0
		c26.3,0,50.6,4.5,72.7,13.4c14.2-8.9,31.5-13.4,51.7-13.4c20.3,0,34.9,2.6,43.8,7.9c-4.7,39-9.8,77.3-15,114.9
		c-5.3,37.7-9,64.4-11.1,80.2c-4.7,35.8-7.1,61.6-7.1,77.4c0,14.7,4.1,24.3,12.3,28.7c22.7-24,50.1-50.5,82.4-79.6
		c-19.5-19.5-29.2-40.3-29.2-62.4c0-22.1,8.3-40.8,24.9-56.1c16.6-15.3,36.2-22.9,58.9-22.9c20.5,0,38.4,8.2,53.7,24.5
		c10,11.1,15,25,15,41.9c0,16.9-5.5,35.8-16.6,56.9c56.3,25.3,94.5,45,114.6,59.3c41.6,30.6,62.4,66.6,62.4,108.2
		C866,643,849.7,676.4,817.1,701.7z"/>
</g>
</svg>
